# xmcd CD database file generated by OrangeCD 5.2
#
# Track frame offsets:
#	150
#	16248
#	35531
#	56619
#	71583
#	93300
#	108458
#	124348
#	147045
#	156313
#	174970
#	194148
#	210410
#	224115
#	239732
#
# Disc length: 3475 seconds
#
# Revision: 4
# Processed by: cddbd v1.5.1PL0 Copyright (c) Steve Scherf et al.
# Submitted via: OrangeCD 5.2
#
DISCID=e40d910f
DTITLE=Eric Bibb - Friends
DYEAR=2003
DGENRE=Country
TTITLE0=99 1/2 Won't Do
TTITLE1=Six O'Clock Blues
TTITLE2=Goin' Down Slow
TTITLE3=Lovin' In My Baby's Eyes
TTITLE4=For You
TTITLE5=The Cape
TTITLE6='Tain't Such A Much
TTITLE7=Needed Time
TTITLE8=If I Stayed
TTITLE9=Connected
TTITLE10=Ribbons And Bows
TTITLE11=Just Look Up
TTITLE12=Cowgirl Queen
TTITLE13=Kulajan - Kulanjan/Sebastian's Tune
TTITLE14=Dance Me To The End Of Love
EXTD=eric bib
EXTT0=
EXTT1=
EXTT2=
EXTT3=
EXTT4=
EXTT5=
EXTT6=
EXTT7=
EXTT8=
EXTT9=
EXTT10=
EXTT11=
EXTT12=
EXTT13=
EXTT14=
PLAYORDER=
